<svg xmlns="http://www.w3.org/2000/svg" xmlns:xlink="http://www.w3.org/1999/xlink" version="1.0" x="0" y="0" width="2400" height="553.6665563873686" viewBox="39.92449844360352 94.99230850219726 260.151003112793 60.015379180908205" preserveAspectRatio="xMidYMid meet" color-interpolation-filters="sRGB"><g><defs><linearGradient id="92" x1="0%" y1="0%" x2="100%" y2="0%"><stop offset="0%" stop-color="#fa71cd"></stop> <stop offset="100%" stop-color="#9b59b6"></stop></linearGradient><linearGradient id="93" x1="0%" y1="0%" x2="100%" y2="0%"><stop offset="0%" stop-color="#f9d423"></stop> <stop offset="100%" stop-color="#f83600"></stop></linearGradient><linearGradient id="94" x1="0%" y1="0%" x2="100%" y2="0%"><stop offset="0%" stop-color="#0064d2"></stop> <stop offset="100%" stop-color="#1cb0f6"></stop></linearGradient><linearGradient id="95" x1="0%" y1="0%" x2="100%" y2="0%"><stop offset="0%" stop-color="#f00978"></stop> <stop offset="100%" stop-color="#3f51b1"></stop></linearGradient><linearGradient id="96" x1="0%" y1="0%" x2="100%" y2="0%"><stop offset="0%" stop-color="#7873f5"></stop> <stop offset="100%" stop-color="#ec77ab"></stop></linearGradient><linearGradient id="97" x1="0%" y1="0%" x2="100%" y2="0%"><stop offset="0%" stop-color="#f9d423"></stop> <stop offset="100%" stop-color="#e14fad"></stop></linearGradient><linearGradient id="98" x1="0%" y1="0%" x2="100%" y2="0%"><stop offset="0%" stop-color="#009efd"></stop> <stop offset="100%" stop-color="#2af598"></stop></linearGradient><linearGradient id="99" x1="0%" y1="0%" x2="100%" y2="0%"><stop offset="0%" stop-color="#ffcc00"></stop> <stop offset="100%" stop-color="#00b140"></stop></linearGradient><linearGradient id="100" x1="0%" y1="0%" x2="100%" y2="0%"><stop offset="0%" stop-color="#d51007"></stop> <stop offset="100%" stop-color="#ff8177"></stop></linearGradient><linearGradient id="102" x1="0%" y1="0%" x2="100%" y2="0%"><stop offset="0%" stop-color="#a2b6df"></stop> <stop offset="100%" stop-color="#0c3483"></stop></linearGradient><linearGradient id="103" x1="0%" y1="0%" x2="100%" y2="0%"><stop offset="0%" stop-color="#7ac5d8"></stop> <stop offset="100%" stop-color="#eea2a2"></stop></linearGradient><linearGradient id="104" x1="0%" y1="0%" x2="100%" y2="0%"><stop offset="0%" stop-color="#00ecbc"></stop> <stop offset="100%" stop-color="#007adf"></stop></linearGradient><linearGradient id="105" x1="0%" y1="0%" x2="100%" y2="0%"><stop offset="0%" stop-color="#b88746"></stop> <stop offset="100%" stop-color="#fdf5a6"></stop></linearGradient></defs><g fill="#0E4B30" class="icon-text-wrapper icon-svg-group iconsvg" transform="translate(42.474998474121094,97.54281044006348)"><g class="iconsvg-imagesvg" transform="translate(0,0)"><g><rect fill="#0E4B30" fill-opacity="0" stroke-width="2" x="0" y="0" width="60" height="54.91437933022762" class="image-rect"></rect> <svg x="0" y="0" width="60" height="54.91437933022762" filtersec="colorsb6429935246" class="image-svg-svg primary" style="overflow: visible;"><svg xmlns="http://www.w3.org/2000/svg" viewBox="-0.015359193086624146 -0.002162158489227295 76.94535827636719 70.42327880859375"><path d="M1.59 66.57c-.51.12-.88-.27-1.36-.33s-.12-.45-.05-.63c.77-2.23 1.55-4.47 2.38-6.68a182.72 182.72 0 0 1 9-20c2.63-5 5.52-9.93 8.58-14.72s6.14-9.11 9.47-13.48c2.26-3 4.62-5.86 7.12-8.64A13.12 13.12 0 0 1 38.42.16c.2.78-.3 1.31-.68 1.88a2.28 2.28 0 0 0-.51.79C34 9.21 31 15.69 28.35 22.32c-2.54 6.32-4.82 12.73-6.9 19.2C20.13 45.64 19 49.81 17.92 54a2.43 2.43 0 0 0-.12.93c0 .27-.07.53-.1.8s.17.47.47.48c.53 0 1 .18 1.58.16 2-.07 3.95.11 5.91.2 7.43.33 14.85.33 22.28.26 2.63 0 5.26-.06 7.89-.26a3.29 3.29 0 0 1 2.22.23c.05.6-.41.54-.78.6a8.4 8.4 0 0 0-2.86.46c-12.56 2.6-25.19 4.78-37.88 6.62-4.54.65-9.08 1.17-13.61 1.83a4.17 4.17 0 0 0-.71 0c-.21.21-.42.18-.62.26z" fill="#DBC9AB"></path><path d="M37.72 1.89a9 9 0 0 0 .7-1.73c.35-.41.44.07.56.21 2.25 2.52 4.43 5.08 6.53 7.73A187.7 187.7 0 0 1 68 43.74a177.94 177.94 0 0 1 8.79 21.48c.05.15.09.3.14.45-.3 0-.32-.22-.42-.37A237.28 237.28 0 0 0 51.76 33c-3.42-3.81-6.93-7.52-10.64-11-.72-.24-1-1-1.71-1.29-.74-.54-.75-.54-1.27.25-4.6 7-9 14.18-13.19 21.5-2.34 4.12-4.67 8.25-6.83 12.48-.13.25-.17.64-.6.61l.14-.63a9.77 9.77 0 0 1 .59-2.26C22.79 39.27 27.61 26 33 13c1.45-3.54 2.8-7.11 4.43-10.57.04-.21.06-.43.29-.54z" fill="#0E4B30"></path><path d="M57.24 57.25A1.37 1.37 0 0 0 58 57a1.1 1.1 0 0 1 .9-.43c.56-.07.52-.28.3-.72q-5.06-10-10.68-19.7c-2.88-5-5.83-9.88-9-14.7-.14-.21-.43-.44-.15-.75a3 3 0 0 1 1.48 1.48c3.2 3.71 6.37 7.44 9.6 11.13 8.67 9.93 16.72 20.35 24.53 31l1.62 2.2c-1.3.26-2.51.52-3.73.75a188.21 188.21 0 0 1-35 3.16 172.62 172.62 0 0 1-19-1.07c-5.62-.63-11.22-1.43-16.77-2.6l-.62-.1c.07-.22.33-.13.46-.27A34.09 34.09 0 0 1 6 65.92c6.94-.36 13.83-1.21 20.71-2.24a293.88 293.88 0 0 0 29.05-6.11 4.7 4.7 0 0 1 1.48-.32z" fill="#3D3B3B"></path></svg></svg> </g></g> <g transform="translate(67,2.5319881439208984)"><g fill-rule="" class="tp-name iconsvg-namesvg" transform="translate(0,0)"><g transform="scale(1)"><g><path d="M2.69 0L2.69-22.42 6.76-22.42 6.76 0 2.69 0ZM30.71 0L27.24 0Q26.14-1.84 24.79-3.96 23.43-6.08 21.97-8.23 20.51-10.39 19.01-12.41 17.5-14.43 16.15-16.05L16.15-16.05 16.15 0 12.13 0 12.13-22.42 15.47-22.42Q16.76-21.06 18.25-19.2 19.74-17.34 21.24-15.34 22.75-13.33 24.15-11.31 25.56-9.29 26.66-7.54L26.66-7.54 26.66-22.42 30.71-22.42 30.71 0ZM54.65 0L51.19 0Q50.09-1.84 48.73-3.96 47.37-6.08 45.91-8.23 44.46-10.39 42.95-12.41 41.45-14.43 40.09-16.05L40.09-16.05 40.09 0 36.08 0 36.08-22.42 39.41-22.42Q40.7-21.06 42.19-19.2 43.68-17.34 45.19-15.34 46.69-13.33 48.1-11.31 49.51-9.29 50.61-7.54L50.61-7.54 50.61-22.42 54.65-22.42 54.65 0ZM63.35-11.23L63.35-11.23Q63.35-9.38 63.81-7.88 64.26-6.37 65.12-5.32 65.98-4.27 67.2-3.69 68.43-3.11 69.99-3.11L69.99-3.11Q71.51-3.11 72.74-3.69 73.97-4.27 74.82-5.32 75.68-6.37 76.14-7.88 76.59-9.38 76.59-11.23L76.59-11.23Q76.59-13.07 76.14-14.58 75.68-16.08 74.82-17.13 73.97-18.18 72.74-18.77 71.51-19.35 69.99-19.35L69.99-19.35Q68.43-19.35 67.2-18.77 65.98-18.18 65.12-17.12 64.26-16.05 63.81-14.56 63.35-13.07 63.35-11.23ZM80.86-11.23L80.86-11.23Q80.86-8.35 80-6.15 79.14-3.95 77.67-2.48 76.2-1 74.23-0.26 72.25 0.49 70.02 0.49L70.02 0.49Q67.79 0.49 65.8-0.26 63.81-1 62.34-2.48 60.86-3.95 59.99-6.15 59.12-8.35 59.12-11.23L59.12-11.23Q59.12-14.11 59.99-16.29 60.86-18.48 62.37-19.96 63.87-21.45 65.85-22.2 67.82-22.94 70.02-22.94L70.02-22.94Q72.22-22.94 74.19-22.2 76.17-21.45 77.64-19.96 79.11-18.48 79.99-16.29 80.86-14.11 80.86-11.23ZM95 0L91.08 0Q88.66-5.24 86.41-10.97 84.16-16.7 82.22-22.42L82.22-22.42 86.72-22.42Q87.49-20.16 88.3-17.8 89.11-15.43 89.92-13.15 90.73-10.87 91.54-8.74 92.35-6.6 93.12-4.82L93.12-4.82Q93.87-6.6 94.68-8.72 95.48-10.84 96.31-13.14 97.13-15.43 97.94-17.8 98.75-20.16 99.5-22.42L99.5-22.42 103.87-22.42Q101.89-16.7 99.66-10.97 97.43-5.24 95 0L95 0ZM124.28 0L119.88 0Q119.43-1.33 118.94-2.62 118.46-3.92 118-5.27L118-5.27 108.56-5.27Q108.1-3.92 107.63-2.6 107.17-1.29 106.71 0L106.71 0 102.47 0Q103.74-3.59 104.87-6.63 106-9.67 107.08-12.39 108.17-15.11 109.24-17.57 110.3-20.03 111.44-22.42L111.44-22.42 115.29-22.42Q116.42-20.03 117.49-17.57 118.55-15.11 119.64-12.39 120.72-9.67 121.87-6.63 123.02-3.59 124.28 0L124.28 0ZM113.28-18.09L113.28-18.09Q112.54-16.37 111.58-13.91 110.63-11.45 109.59-8.57L109.59-8.57 116.97-8.57Q115.93-11.45 114.96-13.95 113.99-16.44 113.28-18.09ZM123.02-22.42L140.91-22.42 140.91-18.9 134.02-18.9 134.02 0 129.91 0 129.91-18.9 123.02-18.9 123.02-22.42ZM144.02 0L144.02-22.42 148.1-22.42 148.1 0 144.02 0ZM163.79 0L159.87 0Q157.45-5.24 155.2-10.97 152.95-16.7 151.01-22.42L151.01-22.42 155.51-22.42Q156.28-20.16 157.09-17.8 157.9-15.43 158.71-13.15 159.52-10.87 160.33-8.74 161.14-6.6 161.91-4.82L161.91-4.82Q162.66-6.6 163.47-8.72 164.28-10.84 165.1-13.14 165.93-15.43 166.73-17.8 167.54-20.16 168.29-22.42L168.29-22.42 172.66-22.42Q170.68-16.7 168.45-10.97 166.22-5.24 163.79 0L163.79 0ZM190.74 0L175.57 0 175.57-22.42 189.97-22.42 189.97-18.96 179.64-18.96 179.64-13.43 188.83-13.43 188.83-10.03 179.64-10.03 179.64-3.46 190.74-3.46 190.74 0Z" transform="translate(-2.690000057220459, 22.940000534057617)"></path></g> </g></g> <g fill-rule="" class="tp-slogan iconsvg-slogansvg" fill="#3D3B3B" transform="translate(5,29.430002212524414)"><rect x="0" height="1" y="9.710201263427734" width="10.102996826171875"></rect> <rect height="1" y="9.710201263427734" width="10.102996826171875" x="167.94700622558594"></rect> <g transform="translate(13.102996826171875,0)"><g transform="scale(2.3800000000000012)"><path d="M2.51 0L1.00 0L1.00-8.32L6.25-8.32L6.25-7.03L2.51-7.03L2.51-4.91L5.83-4.91L5.83-3.62L2.51-3.62L2.51 0ZM10.81 0.18L10.81 0.18Q9.96 0.18 9.35-0.07Q8.74-0.31 8.33-0.76Q7.93-1.20 7.74-1.80Q7.55-2.40 7.55-3.12L7.55-3.12L7.55-8.32L9.07-8.32L9.07-3.26Q9.07-2.70 9.20-2.30Q9.32-1.90 9.56-1.64Q9.79-1.39 10.11-1.27Q10.43-1.15 10.82-1.15L10.82-1.15Q11.22-1.15 11.54-1.27Q11.87-1.39 12.10-1.64Q12.34-1.90 12.46-2.30Q12.59-2.70 12.59-3.26L12.59-3.26L12.59-8.32L14.11-8.32L14.11-3.12Q14.11-2.40 13.91-1.80Q13.72-1.20 13.31-0.76Q12.91-0.31 12.29-0.07Q11.66 0.18 10.81 0.18ZM18.34-8.40L18.34-8.40Q20.14-8.40 21.09-7.74Q22.04-7.08 22.04-5.72L22.04-5.72Q22.04-4.03 20.38-3.43L20.38-3.43Q20.60-3.16 20.89-2.76Q21.18-2.36 21.48-1.90Q21.78-1.44 22.06-0.95Q22.33-0.47 22.55 0L22.55 0L20.86 0Q20.63-0.43 20.36-0.87Q20.10-1.31 19.83-1.72Q19.56-2.14 19.30-2.50Q19.03-2.87 18.80-3.16L18.80-3.16Q18.64-3.14 18.52-3.14Q18.40-3.14 18.29-3.14L18.29-3.14L17.56-3.14L17.56 0L16.04 0L16.04-8.20Q16.60-8.32 17.22-8.36Q17.84-8.40 18.34-8.40ZM18.44-7.09L18.44-7.09Q17.96-7.09 17.56-7.06L17.56-7.06L17.56-4.37L18.22-4.37Q18.77-4.37 19.19-4.43Q19.61-4.49 19.89-4.64Q20.17-4.80 20.32-5.06Q20.46-5.33 20.46-5.74L20.46-5.74Q20.46-6.12 20.32-6.38Q20.17-6.65 19.90-6.80Q19.63-6.96 19.26-7.03Q18.89-7.09 18.44-7.09ZM30.61 0L29.33 0Q28.92-0.68 28.42-1.47Q27.91-2.26 27.37-3.05Q26.83-3.85 26.27-4.60Q25.72-5.35 25.21-5.95L25.21-5.95L25.21 0L23.72 0L23.72-8.32L24.96-8.32Q25.44-7.81 25.99-7.12Q26.54-6.43 27.10-5.69Q27.66-4.94 28.18-4.19Q28.70-3.44 29.11-2.80L29.11-2.80L29.11-8.32L30.61-8.32L30.61 0ZM32.60 0L32.60-8.32L34.12-8.32L34.12 0L32.60 0ZM35.27-8.32L41.90-8.32L41.90-7.01L39.35-7.01L39.35 0L37.82 0L37.82-7.01L35.27-7.01L35.27-8.32ZM46.26 0.18L46.26 0.18Q45.41 0.18 44.80-0.07Q44.18-0.31 43.78-0.76Q43.38-1.20 43.19-1.80Q43.00-2.40 43.00-3.12L43.00-3.12L43.00-8.32L44.52-8.32L44.52-3.26Q44.52-2.70 44.65-2.30Q44.77-1.90 45.01-1.64Q45.24-1.39 45.56-1.27Q45.88-1.15 46.27-1.15L46.27-1.15Q46.67-1.15 46.99-1.27Q47.32-1.39 47.55-1.64Q47.78-1.90 47.91-2.30Q48.04-2.70 48.04-3.26L48.04-3.26L48.04-8.32L49.56-8.32L49.56-3.12Q49.56-2.40 49.36-1.80Q49.16-1.20 48.76-0.76Q48.36-0.31 47.74-0.07Q47.11 0.18 46.26 0.18ZM53.78-8.40L53.78-8.40Q55.58-8.40 56.54-7.74Q57.49-7.08 57.49-5.72L57.49-5.72Q57.49-4.03 55.82-3.43L55.82-3.43Q56.05-3.16 56.34-2.76Q56.63-2.36 56.93-1.90Q57.23-1.44 57.50-0.95Q57.78-0.47 58.00 0L58.00 0L56.30 0Q56.08-0.43 55.81-0.87Q55.55-1.31 55.28-1.72Q55.01-2.14 54.74-2.50Q54.48-2.87 54.25-3.16L54.25-3.16Q54.08-3.14 53.96-3.14Q53.84-3.14 53.74-3.14L53.74-3.14L53.00-3.14L53.00 0L51.49 0L51.49-8.20Q52.04-8.32 52.67-8.36Q53.29-8.40 53.78-8.40ZM53.89-7.09L53.89-7.09Q53.41-7.09 53.00-7.06L53.00-7.06L53.00-4.37L53.66-4.37Q54.22-4.37 54.64-4.43Q55.06-4.49 55.34-4.64Q55.62-4.80 55.76-5.06Q55.91-5.33 55.91-5.74L55.91-5.74Q55.91-6.12 55.76-6.38Q55.62-6.65 55.35-6.80Q55.08-6.96 54.71-7.03Q54.34-7.09 53.89-7.09ZM64.80 0L59.17 0L59.17-8.32L64.51-8.32L64.51-7.03L60.68-7.03L60.68-4.98L64.09-4.98L64.09-3.72L60.68-3.72L60.68-1.28L64.80-1.28L64.80 0Z" transform="translate(-0.996, 8.4)"></path></g></g></g></g></g><defs v-gra="od"></defs></g></svg>